# xmcd
#
# Track frame offsets:
# 150
# 28100
# 38448
# 61996
# 83293
# 99998
# 116149
# 138370
# 162012
# 184377
# 203431
# 225247
# 243298
# 259329
# 274351
# 296955
# 311492
#
# Disc length: 4365 seconds
#
#
# Revision: 0
# Processed by: cddbd v1.5.2PL0 Copyright (c) Steve Scherf et al.
# Submitted via: Nero 7, 2, 3, 2 
#
DISCID=e2110b11
DTITLE=poco - forgotten trail
DYEAR=2007
DGENRE=Country
TTITLE0=you are the one
TTITLE1=12
TTITLE2=Unknown 13
TTITLE3=Unknown14
TTITLE4=Unknown15
TTITLE5=Unknown16
TTITLE6=Unknown17
TTITLE7=Unknown18
TTITLE8=Unknown19
TTITLE9=Unknown20
TTITLE10=Unknown21
TTITLE11=Unknown22
TTITLE12=Unknown23
TTITLE13=Unknown24
TTITLE14=Unknown25
TTITLE15=Unknown26
TTITLE16=Unknown27
EXTD=
EXTT0=
EXTT1=
EXTT2=
EXTT3=
EXTT4=
EXTT5=
EXTT6=
EXTT7=
EXTT8=
EXTT9=
EXTT10=
EXTT11=
EXTT12=
EXTT13=
EXTT14=
EXTT15=
EXTT16=
PLAYORDER=
